<?xml version="1.0" encoding="UTF-8"?>
<svg data-bbox="0.001 0 30.862 33.824" xmlns="http://www.w3.org/2000/svg" viewBox="0 0 31 34" height="34" width="31" data-type="ugc">
    <g>
        <path fill="url(#c77360b4-ab6b-4550-b117-6cdb9c07a1f0)" d="M6.86 31.415h-.067c-1.933-.033-3.712-1.613-4.986-4.453-1.23-2.74-1.878-6.364-1.8-10.199C.16 8.631 3.41 2.31 7.341 2.388c3.954.077 6.941 6.508 6.787 14.652-.076 3.834-.845 7.425-2.185 10.121-1.373 2.752-3.174 4.254-5.085 4.254M.752 16.785c-.066 3.724.549 7.227 1.735 9.868 1.153 2.552 2.68 3.978 4.316 4.01 1.626.012 3.218-1.336 4.459-3.844 1.285-2.597 2.043-6.078 2.109-9.801.142-7.592-2.57-13.813-6.052-13.879h-.055C3.817 3.15.895 9.239.753 16.785"/>
        <path fill="url(#650f1558-0856-488f-a8e4-3a4eeab94a8e)" d="M3.365 16.752c.11-6.464 1.856-12.254 4.437-14.751.911-.884 1.889-1.326 2.9-1.304 3.953.088 6.94 7.27 6.786 16.354-.11 6.464-1.845 12.254-4.436 14.751-.89.862-1.845 1.304-2.834 1.304h-.066c-3.953-.077-6.94-7.26-6.787-16.354m7.27-15.304c-.78 0-1.56.365-2.306 1.094-2.449 2.365-4.096 7.956-4.206 14.221-.143 8.376 2.625 15.514 6.051 15.592.813.01 1.604-.354 2.361-1.094 2.45-2.376 4.097-7.956 4.207-14.221.142-8.376-2.625-15.514-6.052-15.592-.022.012-.033 0-.055 0"/>
        <path fill="url(#70af78d5-c971-4802-b08f-720c25cc1398)" d="M6.693 16.752c.11-6.862 1.89-12.939 4.536-15.491.89-.862 1.812-1.282 2.8-1.26 3.954.088 6.941 7.591 6.788 17.072-.11 6.861-1.89 12.939-4.536 15.491q-1.302 1.26-2.735 1.26h-.077c-3.953-.088-6.93-7.591-6.776-17.072m.747.011c-.143 8.763 2.625 16.232 6.051 16.31.747-.011 1.527-.332 2.274-1.05 2.47-2.387 4.195-8.398 4.305-14.961C20.212 8.299 17.445.83 14.018.752c-.746 0-1.526.332-2.273 1.05C9.275 4.189 7.54 10.2 7.44 16.763"/>
        <path fill="url(#bf0d37b3-1917-4dbc-afd1-9f84b3224180)" d="M16.906 33.824h-.076c-3.954-.088-6.941-7.591-6.777-17.072.11-6.862 1.89-12.939 4.536-15.491.89-.862 1.812-1.282 2.8-1.26 3.954.088 6.941 7.591 6.788 17.072-.11 6.861-1.89 12.939-4.536 15.491-.868.83-1.78 1.26-2.735 1.26M10.8 16.764c-.143 8.762 2.625 16.231 6.051 16.309.736-.011 1.527-.332 2.274-1.05 2.47-2.387 4.195-8.398 4.305-14.961C23.573 8.299 20.805.83 17.379.752h-.055c-.747 0-1.494.354-2.219 1.05-2.47 2.387-4.195 8.398-4.305 14.961"/>
        <path fill="url(#832dc287-5c9d-46f4-811b-6b22506fe75a)" d="M13.373 16.752c.11-6.464 1.856-12.254 4.437-14.751.911-.884 1.878-1.326 2.9-1.304 3.953.088 6.94 7.27 6.786 16.354-.11 6.464-1.845 12.254-4.437 14.751-.89.862-1.845 1.304-2.833 1.304h-.066c-3.965-.077-6.94-7.26-6.787-16.354m7.27-15.304c-.78 0-1.56.365-2.306 1.094-2.45 2.365-4.096 7.956-4.206 14.221-.143 8.376 2.624 15.514 6.05 15.592.803.01 1.604-.354 2.362-1.094 2.45-2.376 4.097-7.956 4.206-14.221.143-8.376-2.624-15.514-6.05-15.592-.023.012-.045 0-.056 0"/>
        <path fill="url(#7dcd0372-6b09-4773-a801-1f8553d5b6d4)" d="M16.745 16.774C16.897 8.686 20.083 2.4 24.004 2.4h.066c3.953.077 6.94 6.508 6.787 14.652-.077 3.834-.846 7.425-2.186 10.121-1.361 2.752-3.163 4.254-5.073 4.254h-.066c-1.933-.033-3.712-1.613-4.986-4.453-1.241-2.751-1.878-6.375-1.802-10.199m.746.011c-.066 3.724.55 7.227 1.736 9.868 1.153 2.552 2.68 3.978 4.316 4.01 1.625.012 3.217-1.336 4.458-3.844 1.285-2.597 2.043-6.078 2.109-9.801.143-7.592-2.57-13.813-6.051-13.879h-.055c-3.449.011-6.37 6.1-6.513 13.646"/>
        <defs fill="none">
            <linearGradient gradientUnits="userSpaceOnUse" y2="17.069" x2="14.136" y1="16.8" x1=".018" id="c77360b4-ab6b-4550-b117-6cdb9c07a1f0">
                <stop stop-color="#8000B1" offset=".16"/>
                <stop stop-color="#560D6E" offset=".566"/>
                <stop stop-color="#B6167C" offset=".692"/>
                <stop stop-color="#EF8474" offset=".939"/>
            </linearGradient>
            <linearGradient gradientUnits="userSpaceOnUse" y2="17.069" x2="17.501" y1="16.801" x1="3.382" id="650f1558-0856-488f-a8e4-3a4eeab94a8e">
                <stop stop-color="#8000B1" offset=".16"/>
                <stop stop-color="#560D6E" offset=".566"/>
                <stop stop-color="#B6167C" offset=".692"/>
                <stop stop-color="#EF8474" offset=".939"/>
            </linearGradient>
            <linearGradient gradientUnits="userSpaceOnUse" y2="17.069" x2="20.82" y1="16.801" x1="6.7" id="70af78d5-c971-4802-b08f-720c25cc1398">
                <stop stop-color="#8000B1" offset=".16"/>
                <stop stop-color="#560D6E" offset=".566"/>
                <stop stop-color="#B6167C" offset=".692"/>
                <stop stop-color="#EF8474" offset=".939"/>
            </linearGradient>
            <linearGradient gradientUnits="userSpaceOnUse" y2="17.069" x2="24.186" y1="16.801" x1="10.067" id="bf0d37b3-1917-4dbc-afd1-9f84b3224180">
                <stop stop-color="#8000B1" offset=".16"/>
                <stop stop-color="#560D6E" offset=".566"/>
                <stop stop-color="#B6167C" offset=".692"/>
                <stop stop-color="#EF8474" offset=".939"/>
            </linearGradient>
            <linearGradient gradientUnits="userSpaceOnUse" y2="17.069" x2="27.506" y1="16.801" x1="13.388" id="832dc287-5c9d-46f4-811b-6b22506fe75a">
                <stop stop-color="#8000B1" offset=".16"/>
                <stop stop-color="#560D6E" offset=".566"/>
                <stop stop-color="#B6167C" offset=".692"/>
                <stop stop-color="#EF8474" offset=".939"/>
            </linearGradient>
            <linearGradient gradientUnits="userSpaceOnUse" y2="17.068" x2="30.873" y1="16.8" x1="16.755" id="7dcd0372-6b09-4773-a801-1f8553d5b6d4">
                <stop stop-color="#8000B1" offset=".16"/>
                <stop stop-color="#560D6E" offset=".566"/>
                <stop stop-color="#B6167C" offset=".692"/>
                <stop stop-color="#EF8474" offset=".939"/>
            </linearGradient>
        </defs>
    </g>
</svg>
